<svg version="1.2" xmlns="http://www.w3.org/2000/svg" viewBox="0 0 456 456" width="456" height="456"><style></style><path  d="m218.5 174.6q-4.1 0-6.9-2.7-2.8-2.8-2.8-6.6 0-3.9 2.8-6.6 2.8-2.8 6.9-2.8 4.1 0 7 2.8 2.9 2.7 2.9 6.6 0 3.8-2.9 6.6-2.9 2.7-7 2.7z"/><path  d="m339.6 291.1h-17.6l-46.3-73q-1.8-2.8-2.9-5.8h-0.4q0.5 3.2 0.5 13.7v65.1h-15.5v-99.4h18.7l44.7 71.3q2.9 4.5 3.7 6.1h0.3q-0.7-3.9-0.7-13.4v-64h15.5z"/><path  d="m236.3 287.1h-54.4v-99.4h52.2v14h-36.2v28.2h33.4v13.9h-33.4v29.4h38.4z"/><path  d="m163.6 203.7h-27.9v85.4h-16.1v-85.4h-27.7v-14h71.7z"/></svg>